<svg width="31" height="30" viewBox="0 0 31 30" fill="none" xmlns="http://www.w3.org/2000/svg">
<path d="M15.567 0C7.19528 0 0.412354 6.71371 0.412354 15C0.412354 23.2863 7.19528 30 15.567 30C23.9387 30 30.7216 23.2863 30.7216 15C30.7216 6.71371 23.9387 0 15.567 0ZM24.3665 16.6935C24.3665 17.0927 24.0365 17.4194 23.6332 17.4194H18.0113V22.9839C18.0113 23.3831 17.6813 23.7097 17.278 23.7097H13.856C13.4527 23.7097 13.1227 23.3831 13.1227 22.9839V17.4194H7.50081C7.0975 17.4194 6.76752 17.0927 6.76752 16.6935V13.3065C6.76752 12.9073 7.0975 12.5806 7.50081 12.5806H13.1227V7.01613C13.1227 6.61694 13.4527 6.29032 13.856 6.29032H17.278C17.6813 6.29032 18.0113 6.61694 18.0113 7.01613V12.5806H23.6332C24.0365 12.5806 24.3665 12.9073 24.3665 13.3065V16.6935Z" fill="#4B6B32"/>
</svg>
