<svg width="41" height="35" viewBox="0 0 41 35" fill="none" xmlns="http://www.w3.org/2000/svg">
<path d="M36.311 0H3.8478C1.77984 0 0.102051 1.67969 0.102051 3.75V31.25C0.102051 33.3203 1.77984 35 3.8478 35H36.311C38.379 35 40.0568 33.3203 40.0568 31.25V3.75C40.0568 1.67969 38.379 0 36.311 0ZM29.7871 22.6953C30.1617 23.0703 30.1617 23.6797 29.7871 24.0547L26.6267 27.2188C26.2521 27.5938 25.6434 27.5938 25.2688 27.2188L20.0794 21.9766L14.89 27.2188C14.5154 27.5938 13.9067 27.5938 13.5321 27.2188L10.3717 24.0547C9.99708 23.6797 9.99708 23.0703 10.3717 22.6953L15.6079 17.5L10.3717 12.3047C9.99708 11.9297 9.99708 11.3203 10.3717 10.9453L13.5321 7.78125C13.9067 7.40625 14.5154 7.40625 14.89 7.78125L20.0794 13.0234L25.2688 7.78125C25.6434 7.40625 26.2521 7.40625 26.6267 7.78125L29.7871 10.9453C30.1617 11.3203 30.1617 11.9297 29.7871 12.3047L24.5509 17.5L29.7871 22.6953Z" fill="#D16969"/>
</svg>
