<svg width="41" height="35" viewBox="0 0 41 35" fill="none" xmlns="http://www.w3.org/2000/svg">
<path d="M36.8274 0H4.36416C2.29619 0 0.618408 1.67969 0.618408 3.75V31.25C0.618408 33.3203 2.29619 35 4.36416 35H36.8274C38.8953 35 40.5731 33.3203 40.5731 31.25V3.75C40.5731 1.67969 38.8953 0 36.8274 0ZM30.3035 22.6953C30.6781 23.0703 30.6781 23.6797 30.3035 24.0547L27.143 27.2188C26.7684 27.5938 26.1598 27.5938 25.7852 27.2188L20.5958 21.9766L15.4063 27.2188C15.0318 27.5938 14.4231 27.5938 14.0485 27.2188L10.888 24.0547C10.5134 23.6797 10.5134 23.0703 10.888 22.6953L16.1243 17.5L10.888 12.3047C10.5134 11.9297 10.5134 11.3203 10.888 10.9453L14.0485 7.78125C14.4231 7.40625 15.0318 7.40625 15.4063 7.78125L20.5958 13.0234L25.7852 7.78125C26.1598 7.40625 26.7684 7.40625 27.143 7.78125L30.3035 10.9453C30.6781 11.3203 30.6781 11.9297 30.3035 12.3047L25.0673 17.5L30.3035 22.6953Z" fill="#4B8F2F" fill-opacity="0.73"/>
</svg>
